<?xml version="1.0" encoding="UTF-8"?>
<svg width="28px" height="27px" viewBox="0 0 28 27" version="1.1" xmlns="http://www.w3.org/2000/svg" xmlns:xlink="http://www.w3.org/1999/xlink">
    <title>Group 4</title>
    <g id="Page-1" stroke="none" stroke-width="1" fill="none" fill-rule="evenodd">
        <g id="Home" transform="translate(-709, -6662)">
            <g id="Group-4" transform="translate(709, 6662)">
                <path d="M27.292517,13.5 C27.292517,20.9558253 21.1828599,27 13.6462585,27 L13.6462585,27 C6.1095884,27 0,20.9558253 0,13.5 L0,13.5 C0,6.04410677 6.1095884,0 13.6462585,0 L13.6462585,0 C21.1828599,0 27.292517,6.04410677 27.292517,13.5 Z" id="Fill-1" fill="#E1E332"></path>
                <path d="M17.7114013,12.4666619 L17.4816257,14.2486354 C17.4429713,14.5466815 17.1819668,14.7704339 16.8725922,14.7704339 L13.8850942,14.7704339 L13.8850942,22.2217868 C13.5697514,22.2493452 13.2506611,22.2631579 12.9279622,22.2631579 C12.2065046,22.2631579 11.5016329,22.1932897 10.8207035,22.060728 L10.8207035,14.7704339 L8.52287895,14.7704339 C8.31204899,14.7704339 8.13987349,14.6032063 8.13987349,14.399033 L8.13987349,12.1690852 C8.13987349,11.9649119 8.31204899,11.7976172 8.52287895,11.7976172 L10.8207035,11.7976172 L10.8207035,8.45293011 C10.8207035,6.40053593 12.5356575,4.73684211 14.6511745,4.73684211 L17.3320045,4.73684211 C17.5429038,4.73684211 17.7150793,4.90413681 17.7150793,5.1083101 L17.7150793,7.33819088 C17.7150793,7.54236417 17.5429038,7.70965887 17.3320045,7.70965887 L15.4168384,7.70965887 C14.5710896,7.70965887 13.8850942,8.37514981 13.8850942,9.19626841 L13.8850942,11.7976172 L17.1022984,11.7976172 C17.4715631,11.7976172 17.7569955,12.1116887 17.7114013,12.4666619" id="Fill-3" fill="#003537"></path>
            </g>
        </g>
    </g>
</svg>