<?xml version="1.0" encoding="UTF-8"?>
<svg width="28px" height="27px" viewBox="0 0 28 27" version="1.1" xmlns="http://www.w3.org/2000/svg" xmlns:xlink="http://www.w3.org/1999/xlink">
    <title>Group 14</title>
    <defs>
        <polygon id="path-1" points="0 0 27.292517 0 27.292517 27 0 27"></polygon>
    </defs>
    <g id="Page-1" stroke="none" stroke-width="1" fill="none" fill-rule="evenodd">
        <g id="Home" transform="translate(-799, -6662)">
            <g id="Group-14" transform="translate(799.7075, 6662)">
                <g id="Group-7">
                    <mask id="mask-2" fill="white">
                        <use xlink:href="#path-1"></use>
                    </mask>
                    <g id="Clip-6"></g>
                    <path d="M27.292517,13.5 C27.292517,20.9558253 21.1828599,27 13.6462585,27 L13.6462585,27 C6.1095884,27 0,20.9558253 0,13.5 L0,13.5 C0,6.04410677 6.1095884,0 13.6462585,0 L13.6462585,0 C21.1828599,0 27.292517,6.04410677 27.292517,13.5 Z" id="Fill-5" fill="#E1E332" mask="url(#mask-2)"></path>
                </g>
                <path d="M20.0680272,17.3712976 C20.0680272,18.7411185 18.9442289,19.8529412 17.5594976,19.8529412 L10.5357405,19.8529412 C9.15100924,19.8529412 8.02721088,18.7411185 8.02721088,17.3712976 L8.02721088,10.422751 C8.02721088,9.05293013 9.15100924,7.94117647 10.5357405,7.94117647 L17.5594976,7.94117647 C18.9442289,7.94117647 20.0680272,9.05293013 20.0680272,10.422751 L20.0680272,17.3712976 Z M17.3830444,6.35294118 L9.90940324,6.35294118 C7.98371376,6.35294118 6.42176871,7.89821412 6.42176871,9.80326436 L6.42176871,17.1968042 C6.42176871,19.1018545 7.98371376,20.6470588 9.90940324,20.6470588 L17.3830444,20.6470588 C19.3087339,20.6470588 20.8707483,19.1018545 20.8707483,17.1968042 L20.8707483,9.80326436 C20.8707483,7.89821412 19.3087339,6.35294118 17.3830444,6.35294118 L17.3830444,6.35294118 Z" id="Fill-8" fill="#003537"></path>
                <path d="M13.6462585,15.8823529 C12.3193429,15.8823529 11.2380952,14.8126791 11.2380952,13.4999669 C11.2380952,12.1873209 12.3193429,11.1176471 13.6462585,11.1176471 C14.9731742,11.1176471 16.0544218,12.1873209 16.0544218,13.4999669 C16.0544218,14.8126791 14.9731742,15.8823529 13.6462585,15.8823529 M14.047619,10.3235294 C12.0536234,10.3235294 10.4353741,11.924486 10.4353741,13.8970257 C10.4353741,15.8696317 12.0536234,17.4705882 14.047619,17.4705882 C16.0416147,17.4705882 17.6598639,15.8696317 17.6598639,13.8970257 C17.6598639,11.924486 16.0416147,10.3235294 14.047619,10.3235294" id="Fill-10" fill="#003537"></path>
                <path d="M17.7302781,10.4210526 C17.3342922,10.4210526 17.0120539,10.1023192 17.0120539,9.71049336 C17.0120539,9.31873339 17.3342922,9 17.7302781,9 C18.126264,9 18.4485022,9.31873339 18.4485022,9.71049336 C18.4485022,10.1023192 18.126264,10.4210526 17.7302781,10.4210526" id="Fill-12" fill="#003537"></path>
            </g>
        </g>
    </g>
</svg>