<?xml version="1.0" encoding="UTF-8"?>
<svg id="Layer_2" data-name="Layer 2" xmlns="http://www.w3.org/2000/svg" viewBox="0 0 841.89 841.89">
  <defs>
    <style>
      .cls-1 {
        fill: #e1e332;
        fill-rule: evenodd;
      }
    </style>
  </defs>
  <g id="Layer_1-2" data-name="Layer 1">
    <path class="cls-1" d="M420.94,0c232.33,0,420.94,188.62,420.94,420.94s-188.62,420.94-420.94,420.94S0,653.27,0,420.94,188.62,0,420.94,0Zm-131.61,657.51V328.78h-109.29v328.73h109.29Zm394.01,0v-188.51c0-100.98-53.91-147.95-125.8-147.95-57.97,0-83.94,31.88-98.48,54.27v-46.54h-109.26c1.45,30.84,0,328.73,0,328.73h109.26v-183.59c0-9.83,.71-19.65,3.6-26.67,7.88-19.62,25.88-39.96,56.06-39.96,39.52,0,55.35,30.16,55.35,74.33v175.89h109.26ZM235.43,170.27c-37.39,0-61.82,24.58-61.82,56.8s23.69,56.8,60.37,56.8h.71c38.11,0,61.83-25.26,61.83-56.8-.71-32.22-23.72-56.8-61.08-56.8h0Z"/>
  </g>
</svg>