<?xml version="1.0" encoding="UTF-8"?>
<svg id="Layer_2" data-name="Layer 2" xmlns="http://www.w3.org/2000/svg" viewBox="0 0 841.89 841.89">
  <defs>
    <style>
      .cls-1 {
        fill: #e1e332;
        fill-rule: evenodd;
      }
    </style>
  </defs>
  <g id="Layer_1-2" data-name="Layer 1">
    <path class="cls-1" d="M420.94,0c232.33,0,420.94,188.62,420.94,420.94s-188.62,420.94-420.94,420.94S0,653.27,0,420.94,188.62,0,420.94,0Zm199.83,221.73c-50.39-50.43-117.41-78.22-188.8-78.25-147.11,0-266.85,119.69-266.9,266.8-.02,47.03,12.27,92.93,35.63,133.39l-37.87,138.26,141.49-37.1c38.98,21.26,82.88,32.46,127.55,32.48h.11c147.1,0,266.84-119.7,266.9-266.82,.03-71.29-27.71-138.33-78.1-188.76h0Zm-188.8,410.51h-.09c-39.81-.02-78.85-10.71-112.91-30.91l-8.1-4.81-83.96,22.02,22.41-81.84-5.27-8.39c-22.21-35.31-33.93-76.12-33.92-118.02,.05-122.27,99.57-221.75,221.93-221.75,59.25,.02,114.95,23.12,156.83,65.04,41.88,41.92,64.94,97.64,64.91,156.89-.05,122.28-99.56,221.77-221.84,221.77h0Zm121.68-166.09c-6.67-3.34-39.46-19.47-45.57-21.69-6.11-2.22-10.56-3.34-15,3.34-4.45,6.67-17.23,21.69-21.12,26.14-3.89,4.45-7.78,5.01-14.45,1.67-6.67-3.33-28.16-10.38-53.63-33.09-19.83-17.68-33.21-39.51-37.1-46.18-3.89-6.67-.41-10.28,2.93-13.61,3-2.99,6.67-7.79,10-11.68s4.45-6.67,6.67-11.12c2.22-4.45,1.11-8.34-.56-11.68-1.67-3.34-15-36.15-20.56-49.5-5.41-13-10.91-11.24-15-11.44-3.89-.19-8.34-.24-12.78-.24s-11.67,1.67-17.78,8.34c-6.11,6.67-23.34,22.8-23.34,55.62s23.9,64.52,27.23,68.97c3.33,4.45,47.03,71.79,113.92,100.67,15.91,6.87,28.33,10.97,38.02,14.04,15.98,5.07,30.51,4.36,42.01,2.64,12.81-1.91,39.46-16.13,45.01-31.7,5.56-15.57,5.56-28.92,3.89-31.7-1.67-2.78-6.11-4.45-12.78-7.79h0Z"/>
  </g>
</svg>