<?xml version="1.0" encoding="UTF-8"?>
<svg width="29px" height="27px" viewBox="0 0 29 27" version="1.1" xmlns="http://www.w3.org/2000/svg" xmlns:xlink="http://www.w3.org/1999/xlink">
    <title>Group 13</title>
    <g id="Page-1" stroke="none" stroke-width="1" fill="none" fill-rule="evenodd">
        <g id="Home" transform="translate(-754, -6662)">
            <g id="Group-13" transform="translate(754.8818, 6662)">
                <path d="M27.292517,13.5 C27.292517,20.9558253 21.1828599,27 13.6462585,27 L13.6462585,27 C6.1095884,27 0,20.9558253 0,13.5 L0,13.5 C0,6.04410677 6.1095884,0 13.6462585,0 L13.6462585,0 C21.1828599,0 27.292517,6.04410677 27.292517,13.5 Z" id="Fill-14" fill="#E1E332"></path>
                <path d="M7.90046545,7.94117647 L9.97114729,7.94117647 L18.3358396,19.0588235 L16.2650866,19.0588235 L7.90046545,7.94117647 Z M15.4977347,12.248392 L21.0429232,6.35294118 L18.9370611,6.35294118 L14.5846562,10.9805303 L11.2517199,6.35294118 L5.49230218,6.35294118 L11.3227157,14.4482731 L5.49230218,20.6470588 L7.59816432,20.6470588 L12.2360011,15.7161348 L15.7873752,20.6470588 L21.546724,20.6470588 L15.4977347,12.248392 Z" id="Fill-16" fill="#003537"></path>
            </g>
        </g>
    </g>
</svg>